<svg width="24" height="24" viewBox="0 0 24 24" fill="none" xmlns="http://www.w3.org/2000/svg">
<path d="M1 18C1.15 16.2167 1.696 14.575 2.638 13.075C3.58 11.575 4.834 10.3833 6.4 9.5L4.55 6.3C4.45 6.15 4.425 5.99167 4.475 5.825C4.525 5.65833 4.63333 5.53333 4.8 5.45C4.93333 5.36667 5.08333 5.35 5.25 5.4C5.41667 5.45 5.55 5.55 5.65 5.7L7.5 8.9C8.93333 8.3 10.4333 8 12 8C13.5667 8 15.0667 8.3 16.5 8.9L18.35 5.7C18.45 5.55 18.5833 5.45 18.75 5.4C18.9167 5.35 19.0667 5.36667 19.2 5.45C19.3667 5.53333 19.475 5.65833 19.525 5.825C19.575 5.99167 19.55 6.15 19.45 6.3L17.6 9.5C19.1667 10.3833 20.4207 11.575 21.362 13.075C22.3033 14.575 22.8493 16.2167 23 18H1ZM7 15.25C7.35 15.25 7.646 15.129 7.888 14.887C8.13 14.645 8.25067 14.3493 8.25 14C8.25 13.65 8.129 13.354 7.887 13.112C7.645 12.87 7.34933 12.7493 7 12.75C6.65 12.75 6.354 12.871 6.112 13.113C5.87 13.355 5.74933 13.6507 5.75 14C5.75 14.35 5.871 14.646 6.113 14.888C6.355 15.13 6.65067 15.2507 7 15.25ZM17 15.25C17.35 15.25 17.646 15.129 17.888 14.887C18.13 14.645 18.2507 14.3493 18.25 14C18.25 13.65 18.129 13.354 17.887 13.112C17.645 12.87 17.3493 12.7493 17 12.75C16.65 12.75 16.354 12.871 16.112 13.113C15.87 13.355 15.7493 13.6507 15.75 14C15.75 14.35 15.871 14.646 16.113 14.888C16.355 15.13 16.6507 15.2507 17 15.25Z" fill="white"/>
</svg>
