<svg width="24" height="24" viewBox="0 0 15 15" fill="none" xmlns="http://www.w3.org/2000/svg">
<path d="M10 8V7H11V8H10Z" fill="white"/>
<path fill-rule="evenodd" clip-rule="evenodd" d="M7.5 0.420998L14 4.213V10.787L7.5 14.58L1 10.787V4.213L7.5 0.419998V0.420998ZM6.332 4C5.4483 4 4.60079 4.35105 3.97592 4.97592C3.35105 5.60079 3 6.4483 3 7.332V7.668C3.00013 8.23579 3.14536 8.79412 3.4219 9.29002C3.69843 9.78592 4.0971 10.2029 4.58007 10.5015C5.06304 10.8 5.61429 10.9702 6.1815 10.9958C6.7487 11.0215 7.31306 10.9017 7.821 10.648L8.224 10.448L7.776 9.553L7.374 9.753C7.01866 9.93078 6.62378 10.0148 6.22684 9.99703C5.82991 9.97928 5.4441 9.86036 5.10605 9.65156C4.768 9.44276 4.48894 9.15101 4.29536 8.80403C4.10178 8.45704 4.00011 8.06633 4 7.669V7.333C4.00004 6.9356 4.10164 6.54481 4.29515 6.1977C4.48866 5.8506 4.76766 5.55871 5.10567 5.34973C5.44369 5.14075 5.8295 5.02162 6.22649 5.00364C6.62348 4.98566 7.01848 5.06943 7.374 5.247L7.776 5.448L8.224 4.554L7.821 4.353C7.35847 4.12126 6.84934 4.0004 6.332 4ZM9 5V6H8V7H9V8H8V9H9V10H10V9H11V10H12V9H13V8H12V7H13V6H12V5H11V6H10V5H9Z" fill="white"/>
</svg>
