<svg width="24" height="24" viewBox="0 0 114 114" fill="none" xmlns="http://www.w3.org/2000/svg">
<path d="M78.3751 28.88C78.3751 28.88 45.8851 37.0025 61.4651 54.91C66.0726 60.1825 60.2776 64.9325 60.2776 64.9325C60.2776 64.9325 71.9151 58.995 66.5001 51.395C61.4651 44.4125 57.6651 40.945 78.3751 28.88ZM57.1426 34.58C76.3801 19.38 66.5001 9.5 66.5001 9.5C70.4901 25.175 52.4401 29.925 45.9326 39.71C41.4676 46.36 48.1176 53.5325 57.0001 61.75C53.6276 53.675 41.7051 46.74 57.1426 34.58ZM44.5076 82.9825C29.8776 87.0675 53.4376 95.475 72.0101 87.5425C70.2051 86.83 68.4476 85.975 66.7851 84.9775C60.3251 86.45 53.6751 86.735 47.1201 85.8325C40.8976 85.0725 44.5076 82.9825 44.5076 82.9825ZM69.7776 75.0025C61.4651 76.8075 52.8676 77.235 44.4126 76.2375C38.1901 75.62 42.2751 72.58 42.2751 72.58C26.1251 77.9475 51.2051 83.98 73.6251 77.425C72.2476 76.9025 70.9176 76 69.7776 75.0025ZM86.0226 90.6775C86.0226 90.6775 88.7301 92.91 83.1251 94.62C72.2951 97.85 38.3326 98.8475 28.9276 94.7625C25.5551 93.29 31.9201 91.2475 33.9151 90.82C35.0076 90.535 36.1001 90.44 37.1926 90.44C33.4401 87.875 12.8251 95.665 26.7901 97.85C64.6476 104.025 95.8551 95 86.0226 90.6775ZM73.0076 67.5925C74.3851 66.69 75.8576 65.93 77.3776 65.265C77.3776 65.265 70.2051 66.5 63.0326 67.165C55.4326 67.925 47.7851 68.02 40.1851 67.45C29.0226 65.9775 46.3126 61.75 46.3126 61.75C41.0876 61.75 35.9576 62.985 31.3026 65.3125C21.5651 70.0625 55.5276 72.2 73.0076 67.5925ZM77.2826 79.0875C77.1876 79.2775 77.0926 79.42 76.9026 79.5625C100.7 73.34 91.9601 57.5225 80.5601 61.465C79.9426 61.75 79.4201 62.13 79.0876 62.6525C79.7526 62.415 80.4176 62.225 81.1301 62.0825C86.8301 60.9425 95.0001 69.825 77.2826 79.0875ZM77.9001 100.985C63.6026 103.455 48.9726 103.645 34.5801 101.65C34.5801 101.65 36.7651 103.455 47.9276 104.168C65.0276 105.26 91.2951 103.55 91.9126 95.475C92.0551 95.5225 90.8201 98.5625 77.9001 100.985Z" fill="white"/>
</svg>
