<svg width="24" height="24" viewBox="0 0 24 24" fill="none" xmlns="http://www.w3.org/2000/svg">
<g clip-path="url(#clip0_327_80)">
<path d="M11.9979 24C11.6769 24 11.3569 23.916 11.0759 23.753L8.13991 22.016C7.70191 21.771 7.91591 21.684 8.05991 21.633C8.64491 21.43 8.76291 21.383 9.38791 21.029C9.45291 20.992 9.53891 21.006 9.60591 21.046L11.8619 22.385C11.9038 22.4072 11.9505 22.4189 11.9979 22.4189C12.0453 22.4189 12.092 22.4072 12.1339 22.385L20.9289 17.309C20.9699 17.2843 21.0038 17.2494 21.0273 17.2077C21.0508 17.166 21.063 17.1189 21.0629 17.071V6.921C21.0628 6.87228 21.0502 6.82441 21.0262 6.78201C21.0022 6.73961 20.9676 6.70413 20.9259 6.679L12.1349 1.607C12.0935 1.58388 12.0468 1.57174 11.9994 1.57174C11.952 1.57174 11.9053 1.58388 11.8639 1.607L3.07491 6.68C3.03301 6.70487 2.99822 6.74011 2.97388 6.78231C2.94954 6.82452 2.93646 6.87228 2.93591 6.921V17.071C2.9361 17.119 2.94909 17.1661 2.97352 17.2074C2.99795 17.2487 3.03295 17.2827 3.07491 17.306L5.48391 18.698C6.79091 19.352 7.59191 18.582 7.59191 17.808V7.787C7.59191 7.645 7.70591 7.534 7.84791 7.534H8.96291C9.10191 7.534 9.21791 7.646 9.21791 7.787V17.808C9.21791 19.553 8.26791 20.553 6.61391 20.553C6.10591 20.553 5.70491 20.553 4.58791 20.002L2.27991 18.675C1.99937 18.5116 1.76659 18.2775 1.6048 17.9961C1.44302 17.7146 1.35789 17.3956 1.35791 17.071V6.921C1.35791 6.262 1.71091 5.646 2.27991 5.318L11.0749 0.235999C11.3582 0.0809868 11.676 -0.000259399 11.9989 -0.000259399C12.3219 -0.000259399 12.6396 0.0809868 12.9229 0.235999L21.7169 5.318C22.2869 5.647 22.6409 6.262 22.6409 6.921V17.071C22.6403 17.3958 22.5547 17.7147 22.3926 17.9961C22.2305 18.2775 21.9976 18.5116 21.7169 18.675L12.9229 23.753C12.6429 23.916 12.3239 24 11.9979 24ZM19.0989 13.993C19.0989 12.093 17.8149 11.587 15.1119 11.23C12.3809 10.869 12.1029 10.682 12.1029 10.043C12.1029 9.515 12.3379 8.81 14.3609 8.81C16.1679 8.81 16.8339 9.199 17.1079 10.417C17.1204 10.4733 17.1516 10.5236 17.1965 10.5598C17.2414 10.596 17.2973 10.6158 17.3549 10.616H18.4959C18.5308 10.6157 18.5652 10.6083 18.5971 10.5944C18.6291 10.5805 18.6579 10.5603 18.6819 10.535C18.7061 10.5088 18.7245 10.4778 18.736 10.444C18.7476 10.4103 18.752 10.3745 18.7489 10.339C18.5719 8.241 17.1779 7.263 14.3609 7.263C11.8529 7.263 10.3569 8.321 10.3569 10.096C10.3569 12.021 11.8449 12.553 14.2519 12.791C17.1319 13.073 17.3549 13.494 17.3549 14.06C17.3549 15.043 16.5659 15.462 14.7129 15.462C12.3859 15.462 11.8739 14.878 11.7019 13.72C11.6924 13.6599 11.6616 13.6051 11.6152 13.5657C11.5688 13.5262 11.5098 13.5047 11.4489 13.505H10.3119C10.2786 13.5047 10.2455 13.5111 10.2146 13.5237C10.1838 13.5363 10.1557 13.5549 10.1321 13.5784C10.1084 13.602 10.0897 13.63 10.077 13.6608C10.0643 13.6916 10.0578 13.7247 10.0579 13.758C10.0579 15.24 10.8639 17.006 14.7129 17.006C17.5009 17.007 19.0989 15.91 19.0989 13.993Z" fill="white"/>
</g>
<defs>
<clipPath id="clip0_327_80">
<rect width="24" height="24" fill="white"/>
</clipPath>
</defs>
</svg>
