<svg width="20" height="20" viewBox="0 0 20 20" fill="none" xmlns="http://www.w3.org/2000/svg">
<path d="M18.75 14V4.66625L10.7625 0V3.58375L13.8912 5.41625C14.015 5.5 14.015 5.66625 13.8912 5.70875L10.185 7.875C10.0612 7.95875 9.93875 7.91625 9.85625 7.875L6.15 5.70875C6.02625 5.66625 6.02625 5.45875 6.15 5.41625L9.28 3.58375V0L1.25 4.66625V14L4.2975 12.2087V8.54125C4.2975 8.41625 4.46125 8.33375 4.54375 8.375L8.25 10.5412C8.37375 10.625 8.415 10.7087 8.415 10.8337V15.1663C8.415 15.2913 8.25 15.375 8.1675 15.3337L5.03875 13.5L1.99125 15.2913L9.97875 20L17.9675 15.3337L14.92 13.5413L11.7925 15.375C11.6687 15.4587 11.545 15.375 11.545 15.2087V10.875C11.545 10.75 11.6275 10.625 11.71 10.5837L15.4163 8.41625C15.54 8.33375 15.6625 8.41625 15.6625 8.58375V12.25L18.75 14Z" fill="white"/>
</svg>
